PathFileType	4	(X/Y/Z)	25_coords_data.trc
DataRate	CameraRate	NumFrames	NumMarkers	Units	OrigDataRate	OrigDataStartFrame	OrigNumFrames
30.0	30.0	6	21	m	30.0	71	80
Frame#	Time	THUMB_TIP	THUMB_IP	THUMB_MCP	THUMB_CMC	INDEX_TIP	INDEX_DIP	INDEX_PIP	INDEX_MCP	MIDDLE_TIP	MIDDLE_DIP	MIDDLE_PIP	MIDDLE_MCP	RING_TIP	RING_DIP	RING_PIP	RING_MCP	PINKY_TIP	PINKY_DIP	PINKY_PIP	PINKY_MCP	WRIST
X1	Y1	Z1	X2	Y2	Z2	X3	Y3	Z3	X4	Y4	Z4	X5	Y5	Z5	X6	Y6	Z6	X7	Y7	Z7	X8	Y8	Z8	X9	Y9	Z9	X10	Y10	Z10	X11	Y11	Z11	X12	Y12	Z12	X13	Y13	Z13	X14	Y14	Z14	X15	Y15	Z15	X16	Y16	Z16	X17	Y17	Z17	X18	Y18	Z18	X19	Y19	Z19	X20	Y20	Z20	X21	Y21	Z21
69	2.3333333333333233	0.47324753379176177	0.017332607402227307	-0.16813954005126874	0.4717556029167044	0.00555388227200182	-0.14846631518673142	0.46562113308012376	-0.009170612157172964	-0.12173847308099306	0.4686467996206698	-0.02431995685009114	-0.0798907407964286	0.5654137521380789	0.037592105686762856	-0.17179890442091816	0.5527924273907904	0.02970315946260449	-0.16148063474544339	0.5352742664362056	0.0213094489484843	-0.145522267235751	0.5063941887945065	0.007473080824490164	-0.11744857623248672	0.5912110936965326	0.03764373993191317	-0.15011182214748187	0.5764297523449915	0.03139176952203149	-0.141719872800448	0.5531665849488594	0.023612836394853565	-0.1259806608728311	0.519502178710886	0.008156162984147564	-0.10100173133773144	0.5964609584135712	0.030746484318920908	-0.1278379141670532	0.582113696725872	0.023561625340884462	-0.11962001397719868	0.5619089571329219	0.015406984628686615	-0.10755973571191624	0.5297576121982791	0.00019791992245543621	-0.08833225008182688	0.5958297305037238	0.015702265606184485	-0.09956612370995077	0.5817342991556044	0.007976177449858124	-0.09368170556444788	0.563483143637552	0.0006246017915184643	-0.08635629249789817	0.5319416425452251	-0.011416423183669422	-0.07366649827617616	0.4622830810018609	-0.023011742144276925	-0.051989820119430985
70	2.366666666666656	0.4741074209461654	0.017246480274220488	-0.16806353418098097	0.47235791636552416	0.005491529359998415	-0.14839731027483805	0.4658894079925908	-0.00922170759677765	-0.12174212208035984	0.46870426189737824	-0.02435995579285688	-0.07987566726210937	0.5655323425434211	0.03670112634675937	-0.17209159686640008	0.5528190090471715	0.029108898286820062	-0.16166426621570107	0.5351802208542027	0.021189035568630166	-0.14559694663188089	0.5061542612453672	0.007936013661621333	-0.11739256447026292	0.591144228881901	0.03695762734117303	-0.1505094389920733	0.5763113976486827	0.031021483350710866	-0.14198011826112622	0.553015166341467	0.023715496321412677	-0.12606416053284514	0.5192845323086278	0.008705280239699409	-0.1009029669617334	0.5963150210398778	0.030408002549483948	-0.12841855005763358	0.5819425579625821	0.023480046502980412	-0.12002595033469388	0.561745437046962	0.015629659403631813	-0.10775290229803225	0.5296264180344001	0.0007266216174446338	-0.08823396491880564	0.5958216578868064	0.01542830269076867	-0.10011330992068479	0.5816910346130888	0.007898199836040565	-0.09406161289476844	0.5634236069468517	0.0007808265735047559	-0.08654788523797036	0.5318933740744657	-0.011016812726351133	-0.07360402287144274	0.462283081001861	-0.023011742144276925	-0.051989820119430985
72	2.4000000000000012	0.4748132654092383	0.017182727810186038	-0.1680052002495368	0.4728674204184835	0.005456926634756609	-0.14834002102161592	0.46614654628987573	-0.009242033000082084	-0.12173944891121208	0.4687719168550575	-0.02437620400543239	-0.0798592113596378	0.5656733079744185	0.03609046308238417	-0.17221425228518916	0.5528982378222456	0.02868852425930757	-0.16172574027125253	0.5351641578486284	0.021132426294445117	-0.14558827999911705	0.506025698443955	0.00829458919931736	-0.11730796500367968	0.5910859967239199	0.03672468531902284	-0.1506465483078836	0.576234667905005	0.030946054940966916	-0.14204158094790625	0.5529258477888416	0.02389085005976932	-0.12603119248051858	0.5191532191049978	0.009122464474834002	-0.10078337554522904	0.5962129343641799	0.030364180460979773	-0.12865945041408744	0.5818252003370532	0.02358349381103919	-0.12017326174543413	0.5616347245483326	0.015908222087300583	-0.10777911512729726	0.5295464031737678	0.0011229531692034112	-0.08812062361898965	0.5958133637963623	0.015368687933849268	-0.10035217983296874	0.5816648043072983	0.007953446780939233	-0.09420136988397843	0.5633822208266573	0.0009726433074124241	-0.08659692755482684	0.5318671686045909	-0.010719996216026262	-0.07352148815818116	0.462283081001861	-0.023011742144276925	-0.05198982011943093
73	2.433333333333335	0.47536821812766183	0.017059561655606847	-0.16798926351991278	0.47327062339197945	0.005377936883891543	-0.14831339660082415	0.4663577471284367	-0.009287032719124455	-0.12174328541724866	0.4688328231348521	-0.024394010720932058	-0.07984408238884522	0.5657909552854594	0.03560678105074855	-0.17229305994644772	0.5529677621052562	0.0283512022974296	-0.16176109462094562	0.5351581271050808	0.021091847847801826	-0.14557071145268197	0.5059352427843804	0.008569364689121506	-0.11723616466753745	0.5910274924435059	0.036623609470294305	-0.15071935590111818	0.5761670152525943	0.03094922241036646	-0.14206097561653158	0.5528533298177484	0.024063911644467972	-0.12598384536570434	0.519052153799178	0.009447296196545607	-0.10068596060019114	0.5961265149262216	0.03038659972371638	-0.12880864981974222	0.5817268339988295	0.02371583217228035	-0.12025586960135648	0.5615430573311582	0.01616453159190301	-0.10777496426663158	0.5294834400422905	0.0014367979664355879	-0.0880266571101026	0.5958004887005963	0.015358537621500301	-0.10051065494308353	0.5816399859145411	0.008028109361421065	-0.0942861081828808	0.5633470069705511	0.0011408356387483387	-0.08662161857014611	0.5318464760875765	-0.010487833188368434	-0.07345445993967398	0.4622830810018609	-0.023011742144276925	-0.05198982011943104
74	2.4666666666666686	0.4757566874586201	0.016856903828981973	-0.16802685587420313	0.4735549623953613	0.005237578233593165	-0.148325493498617	0.4665129189328825	-0.009368562705459826	-0.12175689792525113	0.4688840838072139	-0.024417488897022666	-0.0798308034539123	0.5658798135255859	0.035234563775111694	-0.172352032872176	0.553021104972145	0.028086829393529023	-0.16178967008972978	0.5351566284154673	0.02105436716084197	-0.1455596120090653	0.5058788445484302	0.008749292467782666	-0.11718651555074233	0.5909746073174609	0.03659796534833115	-0.15075914075658964	0.57611169095991	0.03098719639170755	-0.14206356779882362	0.5527980885651859	0.024208903871274057	-0.12594090536707397	0.5189797800387407	0.009671372467342843	-0.10062035817531922	0.5960614116833973	0.03042570733522887	-0.12889965257569158	0.581651500644921	0.02383610275746828	-0.12030130532915873	0.5614723363648833	0.016370694564387223	-0.1077614094575845	0.5294371340651608	0.0016609218483476518	-0.08796016620726493	0.5957877902171995	0.01536314098456526	-0.10061739273291992	0.5816190894511157	0.008094210193472784	-0.09433960938563207	0.5633194228715812	0.0012658513098833257	-0.08663845771625339	0.5318306246493123	-0.010325426852351938	-0.07341040766785528	0.4622830810018609	-0.023011742144276925	-0.051989820119430985
75	2.5000000000000018	0.47596297295046563	0.016554215430960695	-0.16812825664305991	0.4737078420997718	0.00501858972732061	-0.14838379604086138	0.4666020554541134	-0.009498502191361724	-0.12178338554833501	0.46892280241974194	-0.024450746628708386	-0.07981989522868499	0.5659328231502498	0.0349581332679233	-0.17241368499287724	0.5530505504670788	0.02788528816497926	-0.16182964452308546	0.5351533961175617	0.02100696641983768	-0.14556955875578786	0.5058522716958737	0.00882336400609185	-0.1171681497441115	0.5909312126521282	0.03659117964700953	-0.15079565716527532	0.57607044204637	0.031016243375909025	-0.14207341074728175	0.5527597829820875	0.02430025088443022	-0.12592044913514422	0.5189342493586565	0.009786424980607111	-0.10059595400249344	0.5960218988888648	0.030431942173455906	-0.12896486569582005	0.5816022505131648	0.023903500246238885	-0.12033623969140161	0.5614239302602758	0.01649896153505459	-0.1077589515398793	0.5294068533937075	0.0017882624943348358	-0.08792910139789312	0.5957788906317973	0.015347869523706259	-0.10070028838581718	0.5816038097614249	0.008123922143889906	-0.09438509507349169	0.5633005142125804	0.0013282701736928582	-0.08666366351246535	0.5318187875265287	-0.010237735346763088	-0.07339671766326844	0.462283081001861	-0.023011742144276925	-0.051989820119430985
